<?xml version="1.0" encoding="iso-8859-1"?>
<!-- Generator: Adobe Illustrator 19.0.0, SVG Export Plug-In . SVG Version: 6.00 Build 0)  -->
<svg version="1.1" id="Layer_1" xmlns="http://www.w3.org/2000/svg" xmlns:xlink="http://www.w3.org/1999/xlink" x="0px" y="0px"
	 viewBox="0 0 297 297" style="enable-background:new 0 0 297 297;" xml:space="preserve">
<g>
	<g>
		<path style="fill:#F86E51;" d="M146.023,215.063L111.77,225.9l-34.258-10.837c-1.615-0.511-3.35-0.511-4.965,0l-36.739,11.622
			c-3.423,1.083-5.749,4.259-5.749,7.849v54.234c0,4.546,3.686,8.232,8.232,8.232h109.346v-82.253
			C147.092,214.805,146.551,214.897,146.023,215.063z"/>
		<path style="fill:#F86E51;" d="M105.489,0.001c-2.183,0-4.277,0.867-5.821,2.411l-67.199,67.2
			c-1.543,1.544-2.411,3.638-2.411,5.821v111.162c0,2.624,1.25,5.09,3.368,6.641c1.428,1.046,3.136,1.591,4.865,1.591
			c0.831,0,1.669-0.126,2.482-0.383l34.257-10.837l34.258,10.837c1.613,0.51,3.348,0.51,4.965,0l33.384-10.562V0.001H105.489z"/>
		<path style="fill:#F86E51;" d="M261.193,226.685l-36.735-11.622c-1.615-0.511-3.35-0.511-4.965,0L185.241,225.9l-34.253-10.837
			c-1.088-0.344-2.229-0.436-3.352-0.317V297H258.71c4.546,0,8.232-3.686,8.232-8.232v-54.234
			C266.943,230.944,264.616,227.768,261.193,226.685z"/>
		<path style="fill:#F86E51;" d="M258.711,0.001H147.637v183.881l0.869-0.275l34.253,10.837c1.615,0.511,3.35,0.511,4.965,0
			l34.252-10.837l34.252,10.837c2.501,0.794,5.231,0.342,7.347-1.208c2.117-1.551,3.368-4.018,3.368-6.641V8.233
			C266.943,3.687,263.257,0.001,258.711,0.001z"/>
	</g>
	<path style="fill:#C63C22;" d="M108.64,0.628c-3.077-1.277-6.618-0.57-8.972,1.784l-67.2,67.199
		c-2.354,2.355-3.059,5.895-1.784,8.972c1.274,3.076,4.276,5.082,7.605,5.082h67.2c4.546,0,8.232-3.686,8.232-8.232v-67.2
		C113.721,4.904,111.715,1.902,108.64,0.628z"/>
	<g>
		<path style="fill:#C63C22;" d="M69.998,108.633c-4.546,0-8.232,3.686-8.232,8.232s3.686,8.232,8.232,8.232h77.639v-16.464
			C147.637,108.633,69.998,108.633,69.998,108.633z"/>
		<path style="fill:#C63C22;" d="M229.795,108.633h-82.158v16.464h82.158c4.546,0,8.232-3.686,8.232-8.232
			S234.341,108.633,229.795,108.633z"/>
	</g>
	<g>
		<g>
			<path style="fill:#E04332;" d="M261.193,226.685l-36.735-11.622c-1.615-0.511-3.35-0.511-4.965,0L185.241,225.9l-34.253-10.837
				c-1.088-0.344-2.229-0.436-3.352-0.317V297H258.71c4.546,0,8.232-3.686,8.232-8.232v-54.234
				C266.943,230.944,264.616,227.768,261.193,226.685z"/>
			<path style="fill:#E04332;" d="M258.711,0.001H147.637v183.881l0.869-0.275l34.253,10.837c1.615,0.511,3.35,0.511,4.965,0
				l34.252-10.837l34.252,10.837c2.501,0.794,5.231,0.342,7.347-1.208c2.117-1.551,3.368-4.018,3.368-6.641V8.233
				C266.943,3.687,263.257,0.001,258.711,0.001z"/>
		</g>
		<path style="fill:#C63C22;" d="M229.795,77.158h-79.899c-4.546,0-8.232-3.686-8.232-8.232s3.686-8.232,8.232-8.232h79.899
			c4.546,0,8.232,3.686,8.232,8.232S234.341,77.158,229.795,77.158z"/>
		<path style="fill:#9E2919;" d="M229.795,108.633h-82.158v16.464h82.158c4.546,0,8.232-3.686,8.232-8.232
			S234.341,108.633,229.795,108.633z"/>
		<path style="fill:#9E2919;" d="M229.795,60.694h-79.899c-0.785,0-1.541,0.117-2.259,0.322v15.821
			c0.719,0.205,1.475,0.322,2.259,0.322h79.899c4.546,0,8.232-3.686,8.232-8.232S234.341,60.694,229.795,60.694z"/>
	</g>
</g>
<g>
</g>
<g>
</g>
<g>
</g>
<g>
</g>
<g>
</g>
<g>
</g>
<g>
</g>
<g>
</g>
<g>
</g>
<g>
</g>
<g>
</g>
<g>
</g>
<g>
</g>
<g>
</g>
<g>
</g>
</svg>
